<svg width="103" height="103" viewBox="0 0 103 103" fill="none" xmlns="http://www.w3.org/2000/svg">
<circle cx="51.9394" cy="51.5758" r="50.0707" fill="white" fill-opacity="0.5" stroke="black" stroke-width="2"/>
<path d="M53.5 71.3503V81.8503" stroke="black" stroke-width="2"/>
<path d="M49 28.3504C50.5 26.017 55.1 21.7504 61.5 23.3504C67.9 24.9504 70.5 30.6837 71 33.3503L81.5 39.3503L71 45.3503V57.3503C70.3333 62.017 66.2 71.3504 55 71.3504H43.5H22L29.5349 59.3503L45.2326 34.3503L49 28.3504Z" fill="#F4F4F4" fill-opacity="0.7"/>
<path d="M22 71.3504L29.5349 59.3503M22 71.3504C26.3274 71.3504 34.919 71.3504 43.5 71.3504M22 71.3504H43.5M71 33.3503C70.5 30.6837 67.9 24.9504 61.5 23.3504C55.1 21.7504 50.5 26.017 49 28.3504L45.2326 34.3503M71 33.3503L81.5 39.3503L71 45.3503M71 33.3503V45.3503M55 71.3504C66.2 71.3504 70.3333 62.017 71 57.3503V45.3503M55 71.3504C51.4528 71.3504 47.4775 71.3504 43.5 71.3504M55 71.3504H43.5M45.2326 34.3503C49.155 37.017 56.1484 45.1778 50 54.8503C45.2326 62.3503 34.0233 62.017 29.5349 59.3503M45.2326 34.3503C39.1022 44.1134 35.6652 49.5872 29.5349 59.3503M45.2326 34.3503L29.5349 59.3503M43.5 71.3504V81.8503" stroke="black" stroke-width="2"/>
<path d="M63 34.8503C63 35.6788 62.3284 36.3503 61.5 36.3503C60.6716 36.3503 60 35.6788 60 34.8503C60 34.0219 60.6716 33.3503 61.5 33.3503C62.3284 33.3503 63 34.0219 63 34.8503Z" fill="black" stroke="black"/>
</svg>
