<svg width="120" height="120" viewBox="0 0 120 120" fill="none" xmlns="http://www.w3.org/2000/svg">
<g opacity="0.5">
<circle cx="60" cy="60" r="58.5" fill="#2F2F2F" stroke="white" stroke-width="3"/>
<mask id="path-2-inside-1_2616_6" fill="white">
<path fill-rule="evenodd" clip-rule="evenodd" d="M97.1947 54.7185L59.8473 25.3125L22.5 54.7185H38.2848V91.875H81.4098V54.7185H97.1947Z"/>
</mask>
<path fill-rule="evenodd" clip-rule="evenodd" d="M97.1947 54.7185L59.8473 25.3125L22.5 54.7185H38.2848V91.875H81.4098V54.7185H97.1947Z" fill="#2F2F2F"/>
<path d="M59.8473 25.3125L61.7032 22.9554L59.8473 21.4942L57.9915 22.9554L59.8473 25.3125ZM97.1947 54.7185V57.7185H105.854L99.0506 52.3615L97.1947 54.7185ZM22.5 54.7185L20.6441 52.3615L13.8404 57.7185H22.5V54.7185ZM38.2848 54.7185H41.2848V51.7185H38.2848V54.7185ZM38.2848 91.875H35.2848V94.875H38.2848V91.875ZM81.4098 91.875V94.875H84.4098V91.875H81.4098ZM81.4098 54.7185V51.7185H78.4098V54.7185H81.4098ZM57.9915 27.6696L95.3388 57.0756L99.0506 52.3615L61.7032 22.9554L57.9915 27.6696ZM24.3559 57.0756L61.7032 27.6696L57.9915 22.9554L20.6441 52.3615L24.3559 57.0756ZM38.2848 51.7185H22.5V57.7185H38.2848V51.7185ZM41.2848 91.875V54.7185H35.2848V91.875H41.2848ZM81.4098 88.875H38.2848V94.875H81.4098V88.875ZM78.4098 54.7185V91.875H84.4098V54.7185H78.4098ZM97.1947 51.7185H81.4098V57.7185H97.1947V51.7185Z" fill="white" mask="url(#path-2-inside-1_2616_6)"/>
<rect x="52.125" y="70.875" width="14.8125" height="19.5" fill="#2F2F2F" stroke="white" stroke-width="3"/>
</g>
</svg>
