<svg width="104" height="103" viewBox="0 0 104 103" fill="none" xmlns="http://www.w3.org/2000/svg">
<circle cx="52.0605" cy="51.8283" r="50.0707" fill="white" fill-opacity="0.5" stroke="black" stroke-width="2"/>
<path d="M80 62C80 74.8529 67.464 81 52 81C36.536 81 24 74.8529 24 62C24 54.976 27.744 47.864 33.6638 42.8581C38.5762 38.7039 44.987 36 52 36C67.464 36 80 49.1471 80 62Z" fill="#F4F4F4" fill-opacity="0.7"/>
<path d="M59.2586 36.9821C66.7345 39.0345 72.9769 44.1004 76.6014 50.2432C78.2014 35.8432 75.3326 27.1667 73.4992 24.5C67.9992 25 61.7586 31.4821 59.2586 36.9821Z" fill="#F4F4F4" fill-opacity="0.7"/>
<path d="M59.2586 36.9821C66.7345 39.0345 72.9769 44.1004 76.6014 50.2432C78.2014 35.8432 75.3326 27.1667 73.4992 24.5C67.9992 25 61.7586 31.4821 59.2586 36.9821Z" fill="#F4F4F4" fill-opacity="0.7"/>
<path d="M27.4051 50.2309C29.0159 47.5043 31.1425 44.9902 33.6638 42.8581C37.9831 39.1395 42.3831 37.7428 44.6751 37C42.1751 31.5 35.9787 24.5 30.4787 24C28.6454 26.6667 25.8051 35.8309 27.4051 50.2309Z" fill="#F4F4F4" fill-opacity="0.7"/>
<path d="M59.2586 36.9821L58.3482 36.5683L57.8629 37.636L58.9939 37.9465L59.2586 36.9821ZM73.4992 24.5L74.3233 23.9335L73.9917 23.4511L73.4087 23.5041L73.4992 24.5ZM76.6014 50.2432L75.7401 50.7514L77.2641 53.3342L77.5953 50.3536L76.6014 50.2432ZM44.6751 37L44.9834 37.9513L46.049 37.606L45.5855 36.5862L44.6751 37ZM30.4787 24L30.5693 23.0041L29.9863 22.9511L29.6547 23.4335L30.4787 24ZM27.4051 50.2309L26.4112 50.3414L26.7334 53.2411L28.2578 50.7534L27.4051 50.2309ZM79 62C79 68.0381 76.0828 72.4855 71.2718 75.4701C66.4165 78.4821 59.6205 80 52 80V82C59.8434 82 67.0475 80.4443 72.3262 77.1696C77.6492 73.8673 81 68.8148 81 62H79ZM52 80C44.3795 80 37.5835 78.4821 32.7282 75.4701C27.9172 72.4855 25 68.0381 25 62H23C23 68.8148 26.3508 73.8673 31.6738 77.1696C36.9525 80.4443 44.1566 82 52 82V80ZM52 37C66.9448 37 79 49.732 79 62H81C81 48.5623 67.9831 35 52 35V37ZM60.169 37.3959C61.3588 34.7782 63.4611 31.889 65.9333 29.5998C68.4257 27.2921 71.1601 25.7168 73.5898 25.4959L73.4087 23.5041C70.3384 23.7832 67.2025 25.699 64.5745 28.1323C61.9265 30.5842 59.6584 33.6861 58.3482 36.5683L60.169 37.3959ZM72.6752 25.0665C73.4785 26.235 74.619 28.9138 75.3525 33.1425C76.0816 37.3451 76.3979 43.0192 75.6075 50.1328L77.5953 50.3536C78.4049 43.0672 78.0868 37.203 77.3231 32.8007C76.5639 28.4245 75.3533 25.4317 74.3233 23.9335L72.6752 25.0665ZM45.5855 36.5862C44.2815 33.7174 42.0337 30.492 39.4021 27.9111C36.7967 25.3558 33.6645 23.2855 30.5693 23.0041L30.3882 24.9959C32.7929 25.2145 35.5089 26.8942 38.0017 29.3389C40.4683 31.758 42.5688 34.7826 43.7647 37.4138L45.5855 36.5862ZM29.6547 23.4335C28.6183 24.9409 27.4177 28.0643 26.6681 32.5507C25.9129 37.0707 25.6016 43.0545 26.4112 50.3414L28.399 50.1205C27.6086 43.0073 27.9175 37.209 28.6407 32.8803C29.3696 28.5179 30.5058 25.7258 31.3028 24.5665L29.6547 23.4335ZM58.9939 37.9465C66.2085 39.9271 72.2419 44.8226 75.7401 50.7514L77.4627 49.735C73.7118 43.3782 67.2604 38.1418 59.5233 36.0178L58.9939 37.9465ZM28.2661 50.7396C29.8184 48.1119 31.8714 45.6833 34.3095 43.6217L33.0181 42.0945C30.4135 44.297 28.2133 46.8967 26.5441 49.7223L28.2661 50.7396ZM34.3162 43.6159C38.4738 40.0365 42.7078 38.6887 44.9834 37.9513L44.3668 36.0487C42.0583 36.7968 37.4924 38.2424 33.0113 42.1002L34.3162 43.6159ZM33.0113 42.1002C30.7328 44.0618 28.4788 46.5646 26.5524 49.7085L28.2578 50.7534C30.0671 47.8006 32.1814 45.4538 34.3162 43.6159L33.0113 42.1002ZM25 62C25 55.3234 28.5703 48.4749 34.3095 43.6217L33.0181 42.0945C26.9177 47.2532 23 54.6285 23 62H25ZM34.3095 43.6217C39.0611 39.6035 45.248 37 52 37V35C44.726 35 38.0913 37.8043 33.0181 42.0945L34.3095 43.6217Z" fill="black"/>
<path d="M48 62.5L52 70.5L55.5 62.5H48Z" fill="#F4F4F4" fill-opacity="0.7"/>
<path d="M42 69C42.3333 70.6667 43.8 74 47 74C50.2 74 51.6667 71.6667 52 70.5M52 70.5C52.5 71.6667 54.2 74 57 74C60.5 74 62 70.5 62 69M52 70.5L48 62.5H55.5L52 70.5Z" stroke="black" stroke-width="2"/>
<path d="M45 53.5C45 54.3284 44.3284 55 43.5 55C42.6716 55 42 54.3284 42 53.5C42 52.6716 42.6716 52 43.5 52C44.3284 52 45 52.6716 45 53.5Z" fill="black" stroke="black"/>
<path d="M62 53.5C62 54.3284 61.3284 55 60.5 55C59.6716 55 59 54.3284 59 53.5C59 52.6716 59.6716 52 60.5 52C61.3284 52 62 52.6716 62 53.5Z" fill="black" stroke="black"/>
</svg>
