<svg width="103" height="103" viewBox="0 0 103 103" fill="none" xmlns="http://www.w3.org/2000/svg">
<circle cx="51.9394" cy="51.8283" r="50.0707" fill="white" fill-opacity="0.5" stroke="black" stroke-width="2"/>
<path d="M75.531 57.9259C75.531 64.3957 72.9418 69.4703 68.7779 72.9444C64.5956 76.4339 58.765 78.3545 52.2478 78.3545C45.7306 78.3545 39.9 76.4339 35.7176 72.9444C31.5538 69.4703 28.9646 64.3957 28.9646 57.9259C28.9646 51.4137 31.5899 44.4882 35.8556 39.1957C40.1223 33.9019 45.9316 30.3545 52.2478 30.3545C58.564 30.3545 64.3732 33.9019 68.64 39.1957C72.9057 44.4882 75.531 51.4137 75.531 57.9259Z" fill="white" fill-opacity="0.5" stroke="black" stroke-width="2"/>
<path d="M62.1592 27.3545L58.6902 30.8545C67.6105 34.3545 70.0884 41.3545 74.053 42.8545C76.5309 43.792 78.8436 41.8545 79.5043 39.8545C79.8347 38.8545 79.9999 37.8545 79.9999 35.8545C79.9999 33.8545 78.8672 28.8545 75.0442 25.8545C70.584 22.3545 65.1327 24.3545 62.1592 27.3545Z" fill="white" fill-opacity="0.5" stroke="black" stroke-width="2"/>
<path d="M41.8408 27.709L45.3098 31.209C36.3895 34.709 33.9116 41.709 29.947 43.209C27.4691 44.1465 25.1564 42.209 24.4957 40.209C24.1653 39.209 24.0001 38.209 24.0001 36.209C24.0001 34.209 25.1328 29.209 28.9558 26.209C33.416 22.709 38.8673 24.709 41.8408 27.709Z" fill="white" fill-opacity="0.5" stroke="black" stroke-width="2"/>
<path d="M48 58.5L52 66.5L55.5 58.5H48Z" fill="white" fill-opacity="0.5"/>
<path d="M42 65C42.3333 66.6667 43.8 70 47 70C50.2 70 51.6667 67.6667 52 66.5M52 66.5C52.5 67.6667 54.2 70 57 70C60.5 70 62 66.5 62 65M52 66.5L48 58.5H55.5L52 66.5Z" stroke="black" stroke-width="2"/>
<path d="M45 49.5C45 50.3284 44.3284 51 43.5 51C42.6716 51 42 50.3284 42 49.5C42 48.6716 42.6716 48 43.5 48C44.3284 48 45 48.6716 45 49.5Z" fill="black" stroke="black"/>
<path d="M62 49.5C62 50.3284 61.3284 51 60.5 51C59.6716 51 59 50.3284 59 49.5C59 48.6716 59.6716 48 60.5 48C61.3284 48 62 48.6716 62 49.5Z" fill="black" stroke="black"/>
</svg>
