<svg width="120" height="120" viewBox="0 0 120 120" fill="none" xmlns="http://www.w3.org/2000/svg">
<circle cx="60" cy="60" r="59" fill="white" fill-opacity="0.3" stroke="black" stroke-width="2"/>
<mask id="path-2-inside-1_2616_6" fill="white">
<path fill-rule="evenodd" clip-rule="evenodd" d="M97.1947 54.7185L59.8473 25.3125L22.5 54.7185H38.2848V91.875H81.4098V54.7185H97.1947Z"/>
</mask>
<path fill-rule="evenodd" clip-rule="evenodd" d="M97.1947 54.7185L59.8473 25.3125L22.5 54.7185H38.2848V91.875H81.4098V54.7185H97.1947Z" fill="white" fill-opacity="0.3"/>
<path d="M59.8473 25.3125L61.0846 23.7411L59.8473 22.767L58.6101 23.7411L59.8473 25.3125ZM97.1947 54.7185V56.7185H102.968L98.4319 53.1472L97.1947 54.7185ZM22.5 54.7185L21.2628 53.1472L16.7269 56.7185H22.5V54.7185ZM38.2848 54.7185H40.2848V52.7185H38.2848V54.7185ZM38.2848 91.875H36.2848V93.875H38.2848V91.875ZM81.4098 91.875V93.875H83.4098V91.875H81.4098ZM81.4098 54.7185V52.7185H79.4098V54.7185H81.4098ZM58.6101 26.8839L95.9575 56.2899L98.4319 53.1472L61.0846 23.7411L58.6101 26.8839ZM23.7372 56.2899L61.0846 26.8839L58.6101 23.7411L21.2628 53.1472L23.7372 56.2899ZM38.2848 52.7185H22.5V56.7185H38.2848V52.7185ZM40.2848 91.875V54.7185H36.2848V91.875H40.2848ZM81.4098 89.875H38.2848V93.875H81.4098V89.875ZM79.4098 54.7185V91.875H83.4098V54.7185H79.4098ZM97.1947 52.7185H81.4098V56.7185H97.1947V52.7185Z" fill="black" mask="url(#path-2-inside-1_2616_6)"/>
<rect x="51.625" y="70.375" width="15.8125" height="20.5" fill="white" fill-opacity="0.3" stroke="black" stroke-width="2"/>
</svg>
