<svg width="104" height="103" viewBox="0 0 104 103" fill="none" xmlns="http://www.w3.org/2000/svg">
<circle cx="51.9999" cy="51.8283" r="50.0707" fill="#F4F4F4" fill-opacity="0.7" stroke="black" stroke-width="2"/>
<path d="M32 59H26C24 59 22 57.1 22 53.5C22 49.9 24 48.5 26 48.5H32C29 47.1667 23.3 40 24.5 22H61.5C66 22 76 26.5 77.5 38V48.5C79 48.5 81 50.8 81 54C81 57.2 79 59 77.5 59H71C77 65 76 72.5 70 77C62.0001 83 41 83.5 33 77C25 70.5 28.6667 61.5 32 59Z" fill="#F4F4F4" fill-opacity="0.7"/>
<path d="M32 59H26C24 59 22 57.1 22 53.5C22 49.9 24 48.5 26 48.5H32M32 59C28.6667 61.5 25 70.5 33 77C41 83.5 62.0001 83 70 77C76 72.5 77 65 71 59M32 59V48.5M32 48.5C32 46 33.5 40 38 40C42.5 40 42 41 45.5 43C49 45 53.5 44.5 56.5 43C60.3032 41.0984 59 40 64 40C70 40 71.3333 45.8333 71 48.5M32 48.5C29 47.1667 23.3 40 24.5 22H61.5C66 22 76 26.5 77.5 38V48.5M71 59H77.5C79 59 81 57.2 81 54C81 50.8 79 48.5 77.5 48.5M71 59V48.5M77.5 48.5H71" stroke="black" stroke-width="2"/>
<path d="M51 58.5V64.5" stroke="black" stroke-width="2"/>
<path d="M44 69C46 71 48.2 72 51 72C53.8 72 56.5 71 58 69" stroke="black" stroke-width="2"/>
<path d="M44 53.5C44 54.3284 43.3284 55 42.5 55C41.6716 55 41 54.3284 41 53.5C41 52.6716 41.6716 52 42.5 52C43.3284 52 44 52.6716 44 53.5Z" fill="black" stroke="black"/>
<path d="M61 53.5C61 54.3284 60.3284 55 59.5 55C58.6716 55 58 54.3284 58 53.5C58 52.6716 58.6716 52 59.5 52C60.3284 52 61 52.6716 61 53.5Z" fill="black" stroke="black"/>
</svg>
