<svg width="104" height="103" viewBox="0 0 104 103" fill="none" xmlns="http://www.w3.org/2000/svg">
<circle cx="51.9999" cy="51.5758" r="50.0707" fill="white" fill-opacity="0.5" stroke="black" stroke-width="2"/>
<path d="M32.9189 26C58.7566 31.1675 71.6989 51.9222 73.852 62.1496C72.9036 62.5321 72.1429 63.1458 71.6755 63.68C70.4195 65.1155 67.1539 67.1251 64.1395 63.68C61.1251 60.235 57.5006 62.2446 56.0652 63.68C54.6298 65.1155 51.0053 67.1251 47.9909 63.68C44.9765 60.235 41.352 62.2446 39.9166 63.68C38.4812 64.7566 34.9644 66.2638 32.3806 63.68C31.6791 62.9785 30.9522 62.5056 30.2274 62.2115C34.9644 57.9052 36.5075 50.5817 36.6869 47.5315L45.8377 44.84L36.6869 39.4572C37.1175 36.8734 34.3543 29.4091 32.9189 26Z" fill="#F4F4F4" fill-opacity="0.7"/>
<path d="M73.852 62.1496C71.6989 51.9222 58.7566 31.1675 32.9189 26C34.3543 29.4091 37.1175 36.8734 36.6869 39.4572L45.8377 44.84L36.6869 47.5315C36.5074 50.5817 34.9644 57.9052 30.2274 62.2115M20 65.2949C20.7177 65.2949 22.4761 64.9719 23.768 63.68C25.3829 62.0652 29.1509 60.4503 32.3806 63.68C34.9644 66.2638 38.4812 64.7566 39.9166 63.68C41.352 62.2446 44.9765 60.235 47.9909 63.68C51.0053 67.1251 54.6298 65.1155 56.0652 63.68C57.5006 62.2446 61.1251 60.235 64.1395 63.68C67.1539 67.1251 70.4195 65.1155 71.6755 63.68C72.9315 62.2446 76.3048 60.235 79.7498 63.68C80.1086 64.0389 81.257 64.8643 82.9795 65.2949" stroke="black" stroke-width="2"/>
<path d="M20.5383 74.4458C21.256 74.4458 23.0144 74.1228 24.3063 72.8309C25.9212 71.2161 29.6892 69.6012 32.9189 72.8309C35.5027 75.4147 39.0195 73.9075 40.4549 72.8309C41.8904 71.3955 45.5148 69.3859 48.5292 72.8309C51.5436 76.276 55.1681 74.2664 56.6035 72.8309C58.0389 71.3955 61.6634 69.3859 64.6778 72.8309C67.6922 76.276 70.9578 74.2664 72.2138 72.8309C73.4698 71.3955 76.8431 69.3859 80.2881 72.8309C80.647 73.1898 81.7953 74.0152 83.5178 74.4458" stroke="black" stroke-width="2"/>
</svg>
